<svg width="1125" height="187" viewBox="0 0 1125 187" fill="none" xmlns="http://www.w3.org/2000/svg">
<circle cx="53.5" cy="127" r="53.5" fill="#FA3737"/>
<circle cx="135.5" cy="65" r="38.5" fill="#FE7E36"/>
<circle cx="67.5" cy="30" r="23.5" fill="#FFB74E"/>
<path d="M248.224 143V42.2H266.224L300.352 109.304L334.336 42.2H352.336V143H337.072V68.552L306.256 128.6H294.448L263.488 68.696V143H248.224ZM405.65 144.728C398.642 144.728 392.402 143.192 386.93 140.12C381.554 136.952 377.33 132.584 374.258 127.016C371.186 121.448 369.65 114.968 369.65 107.576C369.65 100.088 371.138 93.512 374.114 87.848C377.186 82.184 381.41 77.768 386.786 74.6C392.258 71.432 398.594 69.848 405.794 69.848C412.802 69.848 418.898 71.432 424.082 74.6C429.266 77.672 433.298 81.8 436.178 86.984C439.058 92.168 440.498 97.88 440.498 104.12C440.498 105.08 440.45 106.136 440.354 107.288C440.354 108.344 440.306 109.544 440.21 110.888H384.626C385.106 117.8 387.362 123.08 391.394 126.728C395.522 130.28 400.274 132.056 405.65 132.056C409.97 132.056 413.57 131.096 416.45 129.176C419.426 127.16 421.634 124.472 423.074 121.112H438.338C436.418 127.832 432.578 133.448 426.818 137.96C421.154 142.472 414.098 144.728 405.65 144.728ZM405.65 82.376C400.562 82.376 396.05 83.912 392.114 86.984C388.178 89.96 385.778 94.472 384.914 100.52H425.234C424.946 94.952 422.978 90.536 419.33 87.272C415.682 84.008 411.122 82.376 405.65 82.376ZM489.744 144.728C482.736 144.728 476.496 143.192 471.024 140.12C465.648 136.952 461.424 132.584 458.352 127.016C455.28 121.448 453.744 114.968 453.744 107.576C453.744 100.088 455.232 93.512 458.208 87.848C461.28 82.184 465.504 77.768 470.88 74.6C476.352 71.432 482.688 69.848 489.888 69.848C496.896 69.848 502.992 71.432 508.176 74.6C513.36 77.672 517.392 81.8 520.272 86.984C523.152 92.168 524.592 97.88 524.592 104.12C524.592 105.08 524.544 106.136 524.448 107.288C524.448 108.344 524.4 109.544 524.304 110.888H468.72C469.2 117.8 471.456 123.08 475.488 126.728C479.616 130.28 484.368 132.056 489.744 132.056C494.064 132.056 497.664 131.096 500.544 129.176C503.52 127.16 505.728 124.472 507.168 121.112H522.432C520.512 127.832 516.672 133.448 510.912 137.96C505.248 142.472 498.192 144.728 489.744 144.728ZM489.744 82.376C484.656 82.376 480.144 83.912 476.208 86.984C472.272 89.96 469.872 94.472 469.008 100.52H509.328C509.04 94.952 507.072 90.536 503.424 87.272C499.776 84.008 495.216 82.376 489.744 82.376ZM568.553 143C561.545 143 555.977 141.32 551.849 137.96C547.721 134.504 545.657 128.408 545.657 119.672V84.392H533.417V71.576H545.657L547.529 53.432H560.921V71.576H581.081V84.392H560.921V119.672C560.921 123.608 561.737 126.344 563.369 127.88C565.097 129.32 568.025 130.04 572.153 130.04H580.361V143H568.553ZM605.46 58.04C602.58 58.04 600.18 57.176 598.26 55.448C596.436 53.624 595.524 51.368 595.524 48.68C595.524 45.992 596.436 43.784 598.26 42.056C600.18 40.232 602.58 39.32 605.46 39.32C608.34 39.32 610.692 40.232 612.516 42.056C614.436 43.784 615.396 45.992 615.396 48.68C615.396 51.368 614.436 53.624 612.516 55.448C610.692 57.176 608.34 58.04 605.46 58.04ZM597.828 143V71.576H613.092V143H597.828ZM633.242 143V71.576H646.778L647.93 84.104C650.138 79.688 653.354 76.232 657.578 73.736C661.898 71.144 666.842 69.848 672.41 69.848C681.05 69.848 687.818 72.536 692.714 77.912C697.706 83.288 700.202 91.304 700.202 101.96V143H685.082V103.544C685.082 89.72 679.418 82.808 668.09 82.808C662.426 82.808 657.722 84.824 653.978 88.856C650.33 92.888 648.506 98.648 648.506 106.136V143H633.242ZM747.411 121.112C743.667 121.112 740.211 120.68 737.043 119.816L730.851 125.864C731.907 126.536 733.203 127.112 734.739 127.592C736.275 128.072 738.435 128.504 741.219 128.888C744.003 129.272 747.795 129.656 752.595 130.04C762.099 130.904 768.963 133.208 773.187 136.952C777.411 140.6 779.523 145.496 779.523 151.64C779.523 155.864 778.371 159.848 776.067 163.592C773.859 167.432 770.355 170.504 765.555 172.808C760.851 175.208 754.803 176.408 747.411 176.408C737.427 176.408 729.315 174.488 723.075 170.648C716.931 166.904 713.859 161.192 713.859 153.512C713.859 150.536 714.627 147.56 716.163 144.584C717.795 141.704 720.339 138.968 723.795 136.376C721.779 135.512 720.003 134.6 718.467 133.64C717.027 132.584 715.731 131.528 714.579 130.472V127.016L726.963 114.344C721.395 109.544 718.611 103.256 718.611 95.48C718.611 90.776 719.715 86.504 721.923 82.664C724.227 78.728 727.539 75.608 731.859 73.304C736.179 71 741.363 69.848 747.411 69.848C751.443 69.848 755.187 70.424 758.643 71.576H785.283V81.656L772.611 82.376C774.915 86.312 776.067 90.68 776.067 95.48C776.067 100.28 774.915 104.6 772.611 108.44C770.403 112.28 767.139 115.352 762.819 117.656C758.595 119.96 753.459 121.112 747.411 121.112ZM747.411 109.16C751.827 109.16 755.379 108.008 758.067 105.704C760.851 103.304 762.243 99.944 762.243 95.624C762.243 91.208 760.851 87.848 758.067 85.544C755.379 83.24 751.827 82.088 747.411 82.088C742.899 82.088 739.251 83.24 736.467 85.544C733.779 87.848 732.435 91.208 732.435 95.624C732.435 99.944 733.779 103.304 736.467 105.704C739.251 108.008 742.899 109.16 747.411 109.16ZM728.259 152.072C728.259 156.2 730.083 159.272 733.731 161.288C737.379 163.4 741.939 164.456 747.411 164.456C752.691 164.456 756.963 163.304 760.227 161C763.491 158.792 765.123 155.816 765.123 152.072C765.123 149.288 764.019 146.888 761.811 144.872C759.603 142.952 755.427 141.752 749.283 141.272C744.675 140.984 740.595 140.552 737.043 139.976C733.683 141.8 731.379 143.768 730.131 145.88C728.883 147.992 728.259 150.056 728.259 152.072ZM799.474 143V42.2H837.49C847.954 42.2 855.874 44.648 861.25 49.544C866.626 54.44 869.314 60.584 869.314 67.976C869.314 74.408 867.586 79.544 864.13 83.384C860.674 87.128 856.498 89.672 851.602 91.016C855.442 91.784 858.85 93.32 861.826 95.624C864.898 97.928 867.298 100.808 869.026 104.264C870.754 107.72 871.618 111.464 871.618 115.496C871.618 120.68 870.322 125.384 867.73 129.608C865.234 133.736 861.538 137 856.642 139.4C851.746 141.8 845.746 143 838.642 143H799.474ZM814.738 85.4H835.618C841.474 85.4 845.938 84.056 849.01 81.368C852.082 78.584 853.618 74.792 853.618 69.992C853.618 65.288 852.082 61.544 849.01 58.76C846.034 55.976 841.474 54.584 835.33 54.584H814.738V85.4ZM814.738 130.472H836.626C842.77 130.472 847.522 129.032 850.882 126.152C854.338 123.272 856.066 119.24 856.066 114.056C856.066 108.872 854.29 104.792 850.738 101.816C847.186 98.744 842.386 97.208 836.338 97.208H814.738V130.472ZM887.773 143V71.576H901.453L902.749 85.112C905.245 80.408 908.701 76.712 913.117 74.024C917.629 71.24 923.053 69.848 929.389 69.848V85.832H925.213C920.989 85.832 917.197 86.552 913.837 87.992C910.573 89.336 907.933 91.688 905.917 95.048C903.997 98.312 903.037 102.872 903.037 108.728V143H887.773ZM973.915 144.728C966.907 144.728 960.667 143.192 955.195 140.12C949.819 136.952 945.595 132.584 942.523 127.016C939.451 121.448 937.915 114.968 937.915 107.576C937.915 100.088 939.403 93.512 942.379 87.848C945.451 82.184 949.675 77.768 955.051 74.6C960.523 71.432 966.859 69.848 974.059 69.848C981.067 69.848 987.163 71.432 992.347 74.6C997.531 77.672 1001.56 81.8 1004.44 86.984C1007.32 92.168 1008.76 97.88 1008.76 104.12C1008.76 105.08 1008.72 106.136 1008.62 107.288C1008.62 108.344 1008.57 109.544 1008.48 110.888H952.891C953.371 117.8 955.627 123.08 959.659 126.728C963.787 130.28 968.539 132.056 973.915 132.056C978.235 132.056 981.835 131.096 984.715 129.176C987.691 127.16 989.899 124.472 991.339 121.112H1006.6C1004.68 127.832 1000.84 133.448 995.083 137.96C989.419 142.472 982.363 144.728 973.915 144.728ZM973.915 82.376C968.827 82.376 964.315 83.912 960.379 86.984C956.443 89.96 954.043 94.472 953.179 100.52H993.499C993.211 94.952 991.243 90.536 987.595 87.272C983.947 84.008 979.387 82.376 973.915 82.376ZM1036.04 143L1015.02 71.576H1030.28L1044.11 125.432L1059.66 71.576H1076.65L1092.2 125.432L1106.03 71.576H1121.29L1100.27 143H1084.57L1068.16 86.84L1051.74 143H1036.04Z" fill="#222222"/>
</svg>
